<?xml version="1.0" encoding="UTF-8"?>
<svg xmlns="http://www.w3.org/2000/svg" version="1.1" viewBox="0 0 850.39 566.93">
  <defs>
    <style>
      .cls-1 {
        fill: #e60012;
      }

      .cls-2 {
        fill: #dc162b;
      }
    </style>
  </defs>
  <!-- Generator: Adobe Illustrator 28.6.0, SVG Export Plug-In . SVG Version: 1.2.0 Build 709)  -->
  <g>
    <g id="_图层_1" data-name="图层_1">
      <path class="cls-2" d="M211.76,287.39l-86.63,40.48,21.59,82.88,16.43-2.04-4.52-52.11,5.39-2.42,9.31,53.27,28.08-3.48-4.99-57.52,5.34-2.4,10.24,58.61,28.4-3.52-5.46-63.05,5.4-2.42,11.2,64.1,28.08-3.48v-89.74l-67.86-17.15ZM213.79,413.09l1.43,8.16,64.39,10.83v-27.15l-65.79,8.16h-.04ZM340.52,396.08v11.18h13.65c0,2.27-.58,4.5-1.68,6.47-1.16,1.97-2.87,3.54-4.91,4.52-2.45,1.13-5.12,1.67-7.81,1.59-3.1.09-6.16-.78-8.77-2.48-2.55-1.78-4.51-4.29-5.65-7.2-1.41-3.64-2.09-7.53-1.99-11.44-.1-3.88.59-7.74,2.03-11.34,1.18-2.87,3.16-5.33,5.7-7.08,2.56-1.68,5.56-2.53,8.61-2.46,1.59-.01,3.17.2,4.7.63,1.36.39,2.65,1.02,3.8,1.85,1.09.8,2.04,1.78,2.79,2.91.78,1.21,1.38,2.53,1.75,3.93h15.15c-.4-3.21-1.43-6.3-3.03-9.1-1.6-2.76-3.7-5.19-6.18-7.17-2.61-2.06-5.55-3.64-8.69-4.68-3.41-1.12-6.99-1.68-10.58-1.65-4.2-.04-8.37.75-12.28,2.3-3.76,1.51-7.15,3.8-9.96,6.73-2.94,3.1-5.22,6.78-6.67,10.81-1.67,4.66-2.48,9.59-2.39,14.55,0,7.04,1.33,13.12,3.98,18.22,2.51,4.92,6.38,8.99,11.13,11.74,9.77,5.26,21.43,5.53,31.43.74,4.27-2.18,7.82-5.56,10.24-9.73,2.48-4.24,3.72-9.32,3.72-15.22v-8.64h-28.08ZM529.12,432.2v-66.76h45.32v12.35h-30.36v14.83h24.55v12.35h-24.55v14.87h30.43v12.35h-45.39ZM618.43,385.03c-.13-2.32-1.27-4.47-3.11-5.88-1.83-1.41-4.39-2.11-7.62-2.11-1.87-.06-3.73.24-5.49.88-1.33.49-2.49,1.34-3.36,2.46-.75,1.02-1.16,2.26-1.17,3.54-.04,1.02.2,2.02.69,2.91.52.88,1.24,1.62,2.1,2.17,1.01.66,2.1,1.19,3.25,1.58,1.33.47,2.69.86,4.07,1.16l5.81,1.36c2.85.61,5.63,1.52,8.29,2.73,2.31,1.04,4.44,2.44,6.31,4.14,1.72,1.58,3.09,3.51,4.02,5.65.97,2.32,1.45,4.82,1.41,7.34.1,3.81-.99,7.56-3.11,10.72-2.24,3.14-5.33,5.55-8.9,6.95-4.45,1.73-9.2,2.56-13.97,2.44-4.84.1-9.66-.74-14.18-2.49-3.81-1.49-7.09-4.11-9.4-7.5-2.24-3.34-3.41-7.5-3.51-12.5h14.41c.04,3.95,2.5,7.45,6.18,8.8,2.03.78,4.18,1.16,6.35,1.11,1.99.04,3.97-.28,5.84-.96,1.48-.53,2.79-1.44,3.8-2.65.89-1.13,1.37-2.52,1.38-3.96.01-1.29-.43-2.55-1.24-3.54-1-1.1-2.25-1.95-3.63-2.49-1.96-.8-3.98-1.44-6.04-1.89l-7.08-1.73c-5.64-1.36-10.09-3.5-13.36-6.42-3.26-2.93-4.88-6.89-4.86-11.89-.1-3.84,1.04-7.61,3.26-10.73,2.32-3.17,5.45-5.65,9.06-7.18,4.16-1.78,8.64-2.66,13.16-2.58,4.49-.1,8.96.78,13.09,2.58,3.5,1.54,6.51,4.03,8.69,7.2,2.09,3.18,3.19,6.91,3.16,10.73l-14.3.04ZM518.45,432.2h-14.8v-50.75l-1.52-.02-14.95,50.77h-14.79l-14.54-50.77-1.89.02v50.75h-14.8v-66.76h25.15l12.7,44.74h1.53l12.7-44.74h25.19v66.76ZM417.89,432.2h16.02l-22.22-66.75h-20.3l-22.25,66.75h16.05l4.32-14.64h24.05l4.32,14.64ZM392.95,405.92l7.21-24.47h2.72l7.24,24.47h-17.17ZM637.28,372.5c-1.4,0-2.67-.85-3.22-2.16-.37-.88-.37-1.87,0-2.74.17-.42.43-.8.75-1.12.32-.32.7-.58,1.11-.76.87-.35,1.85-.35,2.72,0,.42.18.79.44,1.11.76.32.32.58.7.75,1.12.37.88.37,1.87,0,2.74-.18.42-.43.8-.75,1.12-.32.32-.7.58-1.11.76-.43.18-.89.27-1.36.27h0ZM637.28,371.54c.45,0,.9-.11,1.29-.34.38-.21.69-.52.92-.88.46-.8.46-1.78,0-2.58-.23-.37-.55-.67-.93-.88-.79-.46-1.77-.46-2.56,0-.36.22-.66.52-.88.88-.47.8-.47,1.79,0,2.58.22.36.52.66.88.88.39.23.83.35,1.28.35ZM636,370.52v-3.25h1.56c.21,0,.42.04.61.13.17.08.31.21.41.37.1.18.15.38.15.58,0,.21-.05.41-.16.58-.1.16-.25.29-.42.36-.19.09-.4.13-.61.12h-1.05v-.64h.88c.11,0,.23-.03.32-.11.08-.09.13-.21.12-.33,0-.12-.04-.24-.12-.33-.09-.07-.2-.11-.32-.11h-.48v2.59h-.88ZM638.1,369.03l.72,1.49h-.97l-.66-1.49h.91ZM372.82,288.01h14.95v66.76h-14.95v-66.76ZM458.79,321.39c0,7.33-1.38,13.52-4.13,18.58-2.56,4.89-6.45,8.93-11.22,11.65-9.95,5.36-21.89,5.36-31.85,0-4.77-2.73-8.66-6.79-11.22-11.68-2.75-5.11-4.13-11.3-4.13-18.58s1.38-13.49,4.13-18.63c2.55-4.87,6.43-8.91,11.18-11.63,9.95-5.34,21.89-5.34,31.85,0,4.77,2.72,8.66,6.77,11.22,11.65,2.75,5.1,4.13,11.31,4.13,18.63M443.54,321.39c.11-3.93-.55-7.84-1.96-11.5-1.11-2.86-3.04-5.33-5.55-7.08-5.23-3.24-11.83-3.24-17.06,0-2.51,1.75-4.45,4.21-5.57,7.08-2.64,7.44-2.64,15.57,0,23.01,1.12,2.87,3.06,5.33,5.57,7.08,5.23,3.24,11.83,3.24,17.06,0,2.51-1.75,4.44-4.21,5.55-7.08,1.4-3.67,2.07-7.58,1.96-11.5M341.4,331.49l7.68,23.27h16.41l-8.54-25.07h-11.6l-.69-2.16c2.21-.43,5.99-1.11,9.34-3.41,4.76-3.27,7.63-8.69,7.67-14.5.1-3.96-.89-7.86-2.86-11.28-1.93-3.31-4.78-5.97-8.21-7.65-4.02-1.88-8.41-2.79-12.84-2.66h-26.69v66.72h14.96v-23.27h15.36ZM341.12,317.68c-2.04.76-4.2,1.11-6.37,1.04h-8.72v-18.46h8.69c2.17-.06,4.33.31,6.36,1.1,1.6.64,2.96,1.79,3.86,3.27.92,1.49,1.38,3.23,1.31,4.99.07,1.73-.38,3.45-1.3,4.91-.91,1.44-2.26,2.54-3.84,3.14M460.2,288.01v12.39h25.7l.7,2.17c-2.18.42-5.85,1.08-9.15,3.27v48.94h14.8v-54.42h17.21v-12.39l-49.26.04Z"/>
      <g>
        <path class="cls-1" d="M168.98,133.09l.78.71c-.52,4.74-.78,13.01-.78,24.81l-.7.63h-4.1l-.7-.71-.96-7.27c-.47-3.9-.83-6.28-1.09-7.15-.26-.87-.68-1.5-1.26-1.9-.58-.4-2.47-.72-5.66-.99-3.2-.26-6.77-.39-10.72-.39h-16.47c-.47,11.91-.7,18.78-.7,20.62v46.07l.17,15.41c.06,5.95.22,9.81.48,11.58.26,1.77.67,2.92,1.22,3.48.55.55,1.61,1.03,3.18,1.42,1.57.39,5.46.7,11.68.91l.61.47v3.95l-.61.63c-14.87-.42-23.18-.63-24.92-.63-1.86,0-10.14.21-24.83.63l-.7-.63v-3.95l.7-.47c5.46-.21,9.07-.47,10.85-.79,1.77-.32,2.96-.72,3.57-1.23.61-.5,1.12-1.57,1.52-3.2.41-1.63.61-5.27.61-10.91l.17-16.67v-46.07c0-.84-.23-7.72-.7-20.62h-12.98c-5.34,0-9.96.11-13.85.32-3.89.21-6.14.75-6.75,1.62-.61.87-1.18,3.7-1.7,8.5l-.87,7.27-.78.71h-4.01l-.7-.63c-.12-12.69-.38-20.97-.78-24.81l.78-.71c10.11.42,26.92.63,50.45.63s40.83-.21,50.53-.63Z"/>
        <path class="cls-1" d="M186.49,155.45l-1.57-.47-.87-6.48.87-.79c5.81-1.53,13.16-3.98,22.04-7.35,8.89-3.37,15.25-5.95,19.08-7.74l2.27.79c-.93,23.07-1.39,36.93-1.39,41.56v29.32c0,7.22.09,14,.26,20.35.17,6.35.44,10.09.78,11.22.35,1.13.94,2.02,1.79,2.65.84.63,2.02,1.04,3.53,1.23s6.01.46,13.51.83l.61.63v3.56l-.61.63c-12.72-.42-21.69-.63-26.92-.63-3.95,0-13.62.21-29.01.63l-.61-.63v-3.56l.7-.63c8.71-.58,13.69-1,14.94-1.26,1.25-.26,2.21-.72,2.88-1.38.67-.66,1.21-1.91,1.61-3.75s.74-7.3,1-16.36c.26-9.06.39-13.7.39-13.91v-31.13c0-15.28-.04-23.57-.13-24.89-.09-1.32-.6-1.98-1.52-1.98-.23,0-.55.05-.96.16-.41.11-1.69.58-3.83,1.42l-8.63,3.48c-3.6,1.42-7,2.92-10.19,4.5Z"/>
      </g>
      <g>
        <path class="cls-1" d="M501.97,139.36l-.56-.54v-3.86l.56-.54c8,.41,14.18.62,18.53.62,1.64,0,8.12-.21,19.44-.62,3.65-.1,6.29-.15,7.93-.15,6.32,0,11.32.69,15.02,2.08,3.7,1.39,6.67,3.84,8.91,7.37,2.25,3.52,3.37,7.52,3.37,11.99,0,5.71-1.87,11-5.61,15.89-3.74,4.89-9.82,8.38-18.25,10.49,5.05.51,9.22,1.26,12.49,2.24,3.27.98,6.11,2.48,8.49,4.51,2.39,2.03,4.27,4.67,5.65,7.91s2.07,6.99,2.07,11.26c0,3.34-.47,6.74-1.4,10.18-.94,3.45-2.66,6.87-5.16,10.26-2.5,3.39-5.53,6.3-9.09,8.72-3.56,2.42-7.19,4.17-10.91,5.25-3.72,1.08-8.34,1.62-13.86,1.62-1.12,0-4.49-.13-10.11-.39-6.22-.15-9.59-.23-10.11-.23-3.18,0-7.09.21-11.72.62l-.56-.62v-2.55l.56-.77c2.71-1.34,4.28-2.26,4.7-2.78.42-.51.76-5.06,1.02-13.65.26-8.59.39-15.14.39-19.67v-28.31l-.07-17.51c0-3.8-.05-6.9-.14-9.29-.09-2.39-.22-4.1-.38-5.13-.16-1.03-.43-1.75-.81-2.16-.37-.41-.9-.76-1.58-1.04-.68-.28-1.84-.53-3.47-.73l-5.33-.46ZM527.16,179.86c2.34.21,4.98.31,7.93.31,9.68,0,16.42-1.9,20.21-5.71,3.79-3.8,5.69-9.02,5.69-15.66,0-3.86-.73-7.13-2.18-9.83-1.45-2.7-3.73-4.77-6.84-6.21-3.11-1.44-7.33-2.16-12.67-2.16-4.35,0-8.19.39-11.51,1.16-.42,4.63-.63,12.7-.63,24.22v13.88ZM527.3,236.09c3.6.93,7.3,1.39,11.09,1.39,6.69,0,11.93-1.18,15.72-3.55,3.79-2.36,6.58-5.64,8.39-9.83,1.8-4.19,2.7-8.75,2.7-13.69,0-7.4-1.91-13.33-5.72-17.78-3.81-4.45-12.06-6.67-24.74-6.67-2.11,0-4.63.1-7.58.31v26.3l.14,23.53Z"/>
        <path class="cls-1" d="M589.83,134.97l.56-.54c11.6.41,18.29.62,20.07.62,1.59,0,8.3-.21,20.14-.62l.56.54v3.86l-.56.54c-3.23.1-5.72.26-7.47.46-1.76.21-3.03.59-3.82,1.16-.8.57-1.32,1.89-1.58,3.97-.26,2.08-.39,4.97-.39,8.68l-.14,17.74v34.09c0,8.54.05,14.5.14,17.89l.35,13.34h14.32c11.42,0,18.54-.15,21.37-.46s5.56-1.05,8.18-2.24c.51-1.28,1.25-4.24,2.21-8.87.96-4.63,1.46-7.3,1.51-8.02l.63-.62h3.44l.49.62c-.37,2.06-.76,6.04-1.16,11.96-.4,5.91-.6,10.7-.6,14.35l-.56.62c-8.89-.31-20.56-.46-35.02-.46l-20.49-.15c-4.68,0-9.45.21-14.32.62l-.56-.62v-2.55l.56-.77c2.9-1.65,4.49-2.65,4.77-3.01.28-.36.57-3.68.88-9.95.3-6.27.46-13.83.46-22.68v-33.09l-.14-15.04c-.05-5.86-.17-9.64-.39-11.34-.21-1.7-.54-2.83-.98-3.39-.44-.57-1.3-1.03-2.56-1.39-1.26-.36-4.37-.64-9.33-.85l-.56-.54v-3.86Z"/>
        <path class="cls-1" d="M780.16,201.38v2.31l-.28.93-3.44,2.24c-.84.57-1.33,1-1.47,1.31-.14.31-.32,1.84-.53,4.59-.21,2.75-.32,6.11-.32,10.07,0,4.47.26,9.33.77,14.58l-.42.77c-12.82,5.4-25.99,8.1-39.51,8.1-10.39,0-19.77-2.16-28.14-6.48-8.38-4.32-15.02-10.72-19.93-19.21-4.91-8.48-7.37-18.56-7.37-30.24,0-17.79,5.53-31.93,16.6-42.42,11.06-10.49,25.51-15.74,43.34-15.74,13.1,0,24.87,2.44,35.3,7.33l.49.85c-.84,3.45-1.82,10.67-2.95,21.67l-.56.54h-3.23l-.56-.62-.35-8.18c-.14-2.67-.29-4.24-.46-4.71-.16-.46-.67-1.07-1.51-1.81-.84-.74-3.01-1.93-6.49-3.55-3.49-1.62-6.98-2.8-10.49-3.55-3.51-.74-7.28-1.12-11.3-1.12-8.56,0-16.14,1.96-22.74,5.86-6.6,3.91-11.57,9.6-14.91,17.09-3.35,7.48-5.02,15.8-5.02,24.95s1.8,18.27,5.4,26.42c3.6,8.15,8.77,14.51,15.51,19.09,6.74,4.58,14.57,6.87,23.51,6.87,3.88,0,7.85-.42,11.9-1.27,4.05-.85,7.38-2.04,10-3.59.42-1.64.63-4.96.63-9.95v-8.56c0-4.06-.23-6.59-.7-7.6-.47-1-1.63-1.71-3.47-2.12-1.85-.41-5.84-.67-11.97-.77l-.63-.69v-3.39l.63-.69,4.28.15c7.34.26,13.33.39,17.97.39,2.67,0,6.57-.15,11.72-.46l.7.62Z"/>
      </g>
      <g>
        <path class="cls-1" d="M350.44,221.56c-.53-1.42-2.75-6.83-6.64-16.23l-18.07-40.62c-2.06-4.64-3.35-7.27-3.88-7.9-.53-.63-2.66-1.05-6.38-1.28l-.48-.43v-2.22l.48-.43c5.42.26,10.03.39,13.82.39,3.54,0,8.24-.13,14.08-.39l.43.39v2.66l-.43.39c-4.29,0-6.85.12-7.68.36-.83.24-1.25.7-1.25,1.38,0,.39.57,2.1,1.7,5.14,1.13,3.04,2.14,5.61,3.03,7.7l16.64,38.21,13.87-31.69c.96-2.16,2.36-5.64,4.2-10.43s2.76-7.68,2.76-8.65c0-.81-.43-1.32-1.3-1.55s-3.46-.5-7.79-.82l-.48-.39v-2.32l.48-.39c6.2.26,10.15.39,11.85.39,1.38,0,4.96-.13,10.74-.39l.43.39v2.32l-.43.39c-2.55.1-4.09.27-4.62.53-.53.26-1,.76-1.41,1.5-.41.74-1.67,3.28-3.8,7.63l-16.58,37.1c-3.72,8.28-6.36,14.7-7.92,19.27h-5.37Z"/>
        <path class="cls-1" d="M396.68,204.07l.43-.39h2.6l.43.39c.18,4.12.42,6.64.72,7.56.3.92,1.26,1.88,2.87,2.9,1.61,1.01,3.76,1.84,6.43,2.49,2.67.64,5.38.97,8.11.97,3.76,0,7.13-.63,10.12-1.88,2.99-1.26,5.32-3.1,6.99-5.53s2.5-5.16,2.5-8.19c0-2.13-.4-3.98-1.2-5.56-.8-1.58-1.91-2.84-3.35-3.79-1.43-.95-3.07-1.66-4.92-2.13s-4.59-.97-8.24-1.52c-3.54-.52-6.32-.98-8.32-1.4s-4-1.06-5.98-1.93c-1.99-.87-3.64-1.97-4.97-3.31s-2.39-2.98-3.19-4.93-1.2-4.03-1.2-6.26c0-6.02,2.3-10.96,6.91-14.81,4.6-3.85,10.79-5.77,18.55-5.77,3.08,0,6.44.35,10.07,1.04s6.94,1.71,9.91,3.07l.37.58c-.78,2.96-1.26,7.18-1.43,12.66l-.48.39h-2.76l-.43-.34c-.07-3.86-.18-6.3-.32-7.29-.14-1-1.75-2.24-4.84-3.72s-6.43-2.22-10.05-2.22c-3.01,0-5.83.55-8.45,1.64s-4.61,2.82-5.95,5.17-2.02,4.75-2.02,7.2c0,1.9.41,3.58,1.22,5.05.81,1.47,1.87,2.62,3.16,3.48,1.29.85,2.8,1.49,4.52,1.91s4.86.93,9.43,1.55c6.27.81,10.83,1.78,13.69,2.92,2.85,1.14,5.14,2.95,6.86,5.43,1.72,2.48,2.58,5.47,2.58,8.98,0,6.86-3.07,12.58-9.22,17.15-6.15,4.57-13.6,6.86-22.35,6.86-7.33,0-13.77-1.19-19.29-3.57l-.32-.63c.35-2.03.62-6.76.8-14.2Z"/>
      </g>
    </g>
  </g>
</svg>